<svg fill="none" xmlns="http://www.w3.org/2000/svg" viewBox="0 0 44 20"><path d="M8.242.592h3.328l2.106 6.11 2.132-6.11h3.302L15.938 8.99l2.34 5.876L23.504.54h3.9L20.02 19h-3.094l-3.25-7.748L10.452 19H7.358L0 .54h3.848L9.1 14.866l2.288-5.876L8.242.592Z" fill="#2196F3"/><path d="M41.073 5.376c-.121-.121-.347-.286-.676-.494a6.638 6.638 0 0 0-1.17-.598c-.45-.19-.945-.355-1.482-.494a5.846 5.846 0 0 0-1.638-.234c-.97 0-1.707.182-2.21.546-.485.364-.728.875-.728 1.534 0 .503.156.901.468 1.196.312.295.78.546 1.404.754.624.208 1.404.433 2.34.676 1.213.295 2.262.659 3.146 1.092.901.416 1.586.97 2.054 1.664.485.676.728 1.577.728 2.704 0 .988-.182 1.837-.546 2.548a4.571 4.571 0 0 1-1.508 1.69 6.925 6.925 0 0 1-2.184.962c-.815.19-1.681.286-2.6.286s-1.837-.095-2.756-.286c-.919-.19-1.803-.46-2.652-.806a12.7 12.7 0 0 1-2.34-1.3l1.586-3.094c.156.156.433.364.832.624.399.243.884.494 1.456.754.572.243 1.196.45 1.872.624a8.24 8.24 0 0 0 2.054.26c.97 0 1.707-.165 2.21-.494.503-.33.754-.797.754-1.404 0-.555-.2-.988-.598-1.3-.399-.312-.953-.58-1.664-.806a52.797 52.797 0 0 0-2.522-.78c-1.161-.33-2.132-.693-2.912-1.092-.78-.416-1.36-.936-1.742-1.56-.381-.624-.572-1.404-.572-2.34 0-1.265.295-2.323.884-3.172.607-.867 1.421-1.517 2.444-1.95C33.828.636 34.963.41 36.211.41c.867 0 1.681.095 2.444.286.78.19 1.508.442 2.184.754.676.312 1.283.65 1.82 1.014l-1.586 2.912Z" fill="#FDD70F"/></svg>