<svg xmlns="http://www.w3.org/2000/svg" xml:space="preserve" viewBox="0 0 666.667 666.667"><defs><clipPath clipPathUnits="userSpaceOnUse" id="a"><path d="M0 500h500V0H0Z"/></clipPath></defs><g clip-path="url(#a)" transform="matrix(1.33333 0 0 -1.33333 0 666.667)"><path d="M469.196 320.605a3.022 3.022 0 0 1-3.091 5.192l-63.573-36.704 50.99 30.941a3.02 3.02 0 0 1 1.033 4.121 3.021 3.021 0 0 1-4.111 1.078l-102.911-59.415h32.391l89.272 54.787m-11.364-54.073a3.021 3.021 0 0 1-4.102 1.062l-3.076-1.776h7.486a3.023 3.023 0 0 1-.308.714m10.543 18.349a3.02 3.02 0 0 1-3.08 5.199l-15.832-9.141 11.667 7.054a3.022 3.022 0 0 1-3.072 5.202l-47.418-27.377h26.381l31.354 19.063m-6.596-11.86a3.017 3.017 0 0 1 1.451 2.584 3.023 3.023 0 0 1-4.531 2.614l-21.479-12.401h12.718l11.841 7.203m-10.559 56.808a3.02 3.02 0 0 1-3.094 5.19l-38.468-22.209 40.537 24.487a3.019 3.019 0 0 1 1.04 4.123 3.02 3.02 0 0 1-4.111 1.08l-79.803-46.073a4972733.4 4972733.4 0 0 0 94.859 57.808 3.025 3.025 0 0 1 1.025 4.122 3.02 3.02 0 0 1-4.108 1.076l-40.726-23.514 25.134 15.138a3.018 3.018 0 0 1 1.045 4.122 3.022 3.022 0 0 1-4.113 1.082l-49.88-28.798 59.271 35.811a3.024 3.024 0 0 1 1.459 2.589 2.99 2.99 0 0 1-.422 1.534 3.02 3.02 0 0 1-4.11 1.08l-128.609-74.251 128.99 79.032a3.019 3.019 0 0 1 1.018 4.121 3.02 3.02 0 0 1-4.107 1.071l-13.217-7.631.616.37a3.018 3.018 0 0 1 1.052 4.123 3.021 3.021 0 0 1-4.115 1.085l-114.787-66.272 126.279 77.313a3.015 3.015 0 0 1 1.444 2.579 3.022 3.022 0 0 1-4.531 2.614l-127.503-73.614a10975289.4 10975289.4 0 0 0 108.449 66.365 3.02 3.02 0 0 1-3.088 5.194l-113.722-65.658 115.396 70.537a3.02 3.02 0 0 1-3.086 5.194l-101.016-58.322 87.033 52.879a3.02 3.02 0 0 1-3.081 5.198l-107.474-62.05 101.706 62.033a3.017 3.017 0 0 1 1.025 4.12c-.659 1.113-1.922 1.626-3.127 1.412a3.007 3.007 0 0 1 1.122 2.32 3.02 3.02 0 0 1-4.531 2.613L206.029 307.586l55.716 35.018a3.018 3.018 0 0 1 .981 4.117 3.022 3.022 0 0 1-4.099 1.057l-34.923-20.164 26.917 16.762a3.024 3.024 0 0 1 .993 4.12 3.02 3.02 0 0 1-4.101 1.062l-54.926-31.712 48.803 30.803a3.02 3.02 0 0 1-3.124 5.171l-70.399-40.644c32.776 21.036 68.926 44.241 68.926 44.241a3.021 3.021 0 0 1-3.142 5.159l-58.165-33.582 63.435 40.217a3.02 3.02 0 0 1 .967 4.115 3.02 3.02 0 0 1-4.095 1.053L162.8 332.236c29.701 19.166 63.002 40.658 63.002 40.658a3.016 3.016 0 0 1 .94 4.112 3.011 3.011 0 0 1-2.534 1.441c.225.432.351.911.351 1.4a3.019 3.019 0 0 1-3.739 2.926l4.246 2.623a3.027 3.027 0 0 1 1.005 4.12 3.021 3.021 0 0 1-4.105 1.067l-77.899-44.976 63.122 40.869a3.014 3.014 0 0 1 1.38 2.538 3.021 3.021 0 0 1-4.533 2.613l-36.191-20.895 43.338 27.398a3.021 3.021 0 0 1-3.126 5.17l-5.251-3.032c.46.548.72 1.232.72 1.937a3.02 3.02 0 0 1-4.533 2.612l-61.861-35.715 59.044 38.33a3.018 3.018 0 0 1 .93 4.111 3.022 3.022 0 0 1-4.087 1.039l-42.783-24.701 30.045 19.306a3.019 3.019 0 0 1 .947 4.114 3.02 3.02 0 0 1-4.09 1.044l-23.361-13.487 16.789 10.862a3.019 3.019 0 0 1 .937 4.113 3.023 3.023 0 0 1-4.088 1.041s-21.802-12.587-40.336-23.29l29.122 19.747a3.019 3.019 0 0 1 .865 4.105 3.021 3.021 0 0 1-4.07 1.012l-44.508-25.696 28.557 20.481a3.024 3.024 0 0 1 .778 4.094 3.022 3.022 0 0 1-4.049.979l-24.872-14.36a59890.06 59890.06 0 0 1 11.656 9.296 3.02 3.02 0 0 1-3.395 4.978l-30.838-17.804a3.022 3.022 0 0 1-1.106-4.128 3.012 3.012 0 0 1 2.513-1.497l-14.107-11.25a3.02 3.02 0 0 1-1.136-2.364 3.021 3.021 0 0 1 4.532-2.615l6.74 3.892-28.557-20.481a3.02 3.02 0 0 1-.778-4.094 3.022 3.022 0 0 1 4.05-.978l25.116 14.5-29.131-19.75a3.02 3.02 0 0 1-.863-4.104 3.02 3.02 0 0 1 4.07-1.013l9.465 5.465-16.812-10.877a3.022 3.022 0 0 1 3.152-5.154l16.568 9.566-30.001-19.278a3.015 3.015 0 0 1-.947-4.114 3.02 3.02 0 0 1 4.09-1.043l52.642 30.391-59.073-38.347a3.022 3.022 0 0 1 3.157-5.151l4.09 2.361a3.025 3.025 0 0 1-.722-1.937 3.021 3.021 0 0 1 4.533-2.613l32.962 19.03-43.325-27.39a3.02 3.02 0 0 1 3.124-5.171l63.831 36.854-63.119-40.865a3.022 3.022 0 0 1 3.153-5.153l6.447 3.723-.649-.401a3.02 3.02 0 0 1-1.005-4.12 2.996 2.996 0 0 1 1.682-1.314l-3.032-1.854a3.023 3.023 0 0 1 3.088-5.195s36.014 20.794 68.977 39.824a4504052.44 4504052.44 0 0 0-63.012-40.663 3.02 3.02 0 0 1 .393-5.29h2.492c.089.041.177.085.263.135l52.411 30.259-47.943-30.394h13.597l47.287 27.301-42.536-27.301h15.029l10.673 6.161-9.763-6.161h58.488l15.747 9.091c-4.846-2.954-9.845-6.003-14.906-9.091h33.622l15.613 9.014-14.747-9.014h17.993l2.299 1.327-2.169-1.327h18.453l7.503 4.333c-2.349-1.44-4.71-2.884-7.076-4.333h117.541l104.024 64.011m14.362-28.965a3.019 3.019 0 0 1 1.014 4.121 3.022 3.022 0 0 1-4.107 1.071l-10.776-6.223 8.916 5.383a3.02 3.02 0 0 1-3.072 5.202l-77.251-44.6h28.242l57.034 35.046" fill="#005bbb"/><path d="M104.489 200.776a3.02 3.02 0 0 1 3.088-5.193s62.381 36.017 121.651 70.235h-18.453l-106.286-65.042m-44.672 65.042h-2.492a3.021 3.021 0 0 1 2.492 0m-10.729-9.801a3.02 3.02 0 0 1 3.129-5.168l25.928 14.969H64.548l-15.46-9.801m42.897-51.732a3.018 3.018 0 0 1-1.023-4.121 3.021 3.021 0 0 1 4.108-1.073l115.575 66.727h-17.993L91.985 204.285m255.548 61.533-5.451-3.147 5.114 3.147H229.655L110.471 192.85a3.021 3.021 0 0 1-1.02-4.122 3.01 3.01 0 0 1 3.499-1.324l-5.263-3.153a3.018 3.018 0 0 1-1.051-4.123 3.021 3.021 0 0 1 4.114-1.085l135.87 78.444-128.955-79.01a3.02 3.02 0 0 1-1.018-4.121 3.021 3.021 0 0 1 4.108-1.071l66.095 38.159-59.239-35.791a3.021 3.021 0 0 1 3.073-5.202l29.439 16.995-25.206-15.179a3.022 3.022 0 0 1 3.069-5.205l103.581 59.802-94.829-57.792a3.02 3.02 0 0 1 3.082-5.196l36.087 20.834-40.507-24.469a3.016 3.016 0 0 1-1.039-4.122 3.021 3.021 0 0 1 4.112-1.08l116.066 67.011c-51.055-31.418-109.157-67.17-109.157-67.17a3.023 3.023 0 0 1 3.096-5.191l55.05 31.785-51.007-30.953a3.015 3.015 0 0 1-1.033-4.122 3.021 3.021 0 0 1 4.11-1.077L274.2 208.023l-95.317-58.497a3.017 3.017 0 0 1-1.016-4.121 3.023 3.023 0 0 1 4.107-1.07l10.313 5.953-9.02-5.444a3.021 3.021 0 0 1 3.073-5.202l88.161 50.9-89.578-55.044a3.021 3.021 0 0 1 3.094-5.19l13.563 7.831-11.633-7.034a3.016 3.016 0 0 1-1.039-4.122 3.022 3.022 0 0 1 4.112-1.08l44.512 25.701c-8.134-4.947-35.126-21.358-35.126-21.358a3.017 3.017 0 0 1-1.029-4.121 3.02 3.02 0 0 1 4.109-1.076s22.156 12.792 27.384 15.809l-25.187-15.319a3.02 3.02 0 0 1-1.029-4.123 3.022 3.022 0 0 1 4.111-1.074l87.552 50.548-72.315-44.999a3.022 3.022 0 0 1 3.107-5.183s25.365 14.646 34.329 19.82l-33.263-20.458a3.016 3.016 0 0 1-1.438-2.576 3.022 3.022 0 0 1 4.531-2.614l84.566 48.822-70.872-44.711a3.018 3.018 0 0 1-.974-4.117 3.024 3.024 0 0 1 4.097-1.056l67.804 39.148-45.712-29.005a3.02 3.02 0 0 1-.966-4.116 3.021 3.021 0 0 1 4.096-1.051l71.118 41.06-30.904-20.585a3.019 3.019 0 0 1-.892-4.108 3.02 3.02 0 0 1 4.077-1.023l90.508 52.253a3.021 3.021 0 0 1-3.023 5.233l-8.805-5.084 30.926 20.6a3.02 3.02 0 0 1-3.187 5.131l-27.693-15.99 45.698 28.997a3.021 3.021 0 0 1-3.13 5.167l-59.526-34.368 70.825 44.683a3.018 3.018 0 0 1 .973 4.116 3.02 3.02 0 0 1-4.096 1.056l-29.917-17.273 33.28 20.469a3.02 3.02 0 0 1 1.013 4.121 3.023 3.023 0 0 1-4.107 1.069l-63.951-36.922 72.343 45.016a3.02 3.02 0 0 1 1.303 3.406h-7.486l-14.099-8.14 13.383 8.14H437.22l-3.958-2.285 3.759 2.285H410.64l-34.629-19.993 32.537 19.993h-28.242l-6.449-3.723 6.067 3.723zM56.5 248.875a3.02 3.02 0 0 1-.948-4.114 3.022 3.022 0 0 1 4.091-1.045l38.282 22.102H82.896L56.5 248.875m14.851-36.006a3.02 3.02 0 0 1-1.026-4.121 3.022 3.022 0 0 1 4.109-1.075l90.888 52.474-87.046-52.887a3.017 3.017 0 0 1-1.031-4.121 3.02 3.02 0 0 1 4.11-1.077l110.431 63.756h-33.622l-86.813-52.949m-11.577 28.295a3.021 3.021 0 0 1 3.123-5.172l30.839 17.805-26.906-16.755a3.02 3.02 0 0 1-.995-4.119 3.02 3.02 0 0 1 4.102-1.063l52.199 30.137-55.723-35.02a3.022 3.022 0 0 1 3.118-5.174s8.572 4.947 9.074 5.238a3.022 3.022 0 0 1-.622-1.799 3.021 3.021 0 0 1 4.533-2.613l74.807 43.189H98.835l-39.061-24.654" fill="#ffd500"/></g></svg>